<?xml version="1.0" standalone="no"?>
<!DOCTYPE svg PUBLIC "-//W3C//DTD SVG 1.1//EN" "http://www.w3.org/Graphics/SVG/1.1/DTD/svg11.dtd" >
<svg xmlns="http://www.w3.org/2000/svg" xmlns:xlink="http://www.w3.org/1999/xlink" version="1.1">
<metadata>
Created by FontForge 20170731 at Fri Jul 31 12:33:34 2020
 By Aleksey,,,
Copyright (c) 2015 by thmbnl. graphic design. All rights reserved
</metadata>
<defs>
<font id="Oduda-Bold" horiz-adv-x="1161" >
  <font-face 
    font-family="Oduda Bold"
    font-weight="700"
    font-stretch="normal"
    units-per-em="2048"
    panose-1="0 0 8 0 0 0 0 0 0 0"
    ascent="1638"
    descent="-410"
    x-height="1013"
    cap-height="1516"
    bbox="29.2093 -426 2400 1720"
    underline-thickness="102"
    underline-position="-307"
    unicode-range="U+0020-25CA"
  />
<missing-glyph horiz-adv-x="1013" 
d="M831 1638v-2027h-643v2027h643zM676 1503h-336v-67h133v-76h-135v-66h338v66h-135v76h135v67zM541 1241h-203v-211h338v70h-135v141zM473 1171v-71h-67v71h67zM676 975h-338v-66h135v-75h-135v-68h203v143h135v66zM676 854h-68v-133h-270v-70h338v203zM676 606h-203v-112
h68v45h67v-95h-202v162h-68v-229h338v229zM676 256h-338v-229h338v229zM608 188v-94h-202v94h202zM676 -20h-338v-66h143l-143 -96v-68h338v68h-207l141 96h66v66z" />
    <glyph glyph-name=".notdef" horiz-adv-x="1013" 
d="M831 1638v-2027h-643v2027h643zM676 1503h-336v-67h133v-76h-135v-66h338v66h-135v76h135v67zM541 1241h-203v-211h338v70h-135v141zM473 1171v-71h-67v71h67zM676 975h-338v-66h135v-75h-135v-68h203v143h135v66zM676 854h-68v-133h-270v-70h338v203zM676 606h-203v-112
h68v45h67v-95h-202v162h-68v-229h338v229zM676 256h-338v-229h338v229zM608 188v-94h-202v94h202zM676 -20h-338v-66h143l-143 -96v-68h338v68h-207l141 96h66v66z" />
    <glyph glyph-name=".null" horiz-adv-x="0" 
 />
    <glyph glyph-name="nonmarkingreturn" horiz-adv-x="682" 
 />
    <glyph glyph-name="space" unicode=" " horiz-adv-x="563" 
 />
    <glyph glyph-name="exclam" unicode="!" horiz-adv-x="466" 
d="M233 369q67 0 114.5 47.5t47.5 113.5v824q0 66 -47.5 114t-114.5 48t-114 -48t-47 -114v-824q0 -66 47 -113.5t114 -47.5zM383 150q0 61 -44 105t-106 44q-61 0 -105 -43.5t-44 -105.5t44 -106t105 -44t105.5 44t44.5 106z" />
    <glyph glyph-name="quotedbl" unicode="&#x22;" horiz-adv-x="772" 
d="M111 1157l-45 201q-15 63 27.5 113t105.5 45q42 -3 74.5 -31t43.5 -70l45 -201q8 -37 -5 -75t-42 -58q-26 -17 -58 -21t-61 5t-52.5 33t-32.5 59zM467 1157l-47 201q-14 63 28.5 112.5t106.5 45.5q42 -3 75 -31.5t42 -69.5l47 -201q9 -37 -4.5 -75t-44.5 -58
q-26 -17 -58.5 -20t-62 6.5t-52.5 33t-30 56.5z" />
    <glyph glyph-name="numbersign" unicode="#" horiz-adv-x="1447" 
d="M1286 879h-160l-43 -228h103q51 0 87 -35t36 -86q0 -52 -36 -87t-87 -35h-150l-57 -308q-11 -59 -53 -82.5t-92 -15.5q-49 9 -78 51t-21 92l53 263h-243l-60 -308q-11 -58 -57.5 -82t-85.5 -16q-51 9 -79 51t-19 92l51 263h-123q-50 0 -85.5 35t-35.5 87q0 51 35.5 86
t85.5 35h170l43 228h-113q-51 0 -86.5 34.5t-35.5 85.5t35.5 87t86.5 36h160l60 295q9 51 50.5 79.5t92.5 19.5q49 -10 77 -52t19 -92l-47 -250h242l57 295q9 50 51 79t90 20q51 -10 79.5 -52t19.5 -92l-47 -250h110q50 0 85.5 -36t35.5 -87t-35.5 -85.5t-85.5 -34.5z
M836 651l43 228h-242l-45 -228h244z" />
    <glyph glyph-name="dollar" unicode="$" horiz-adv-x="1009" 
d="M946 510q0 -165 -85.5 -296t-223.5 -187v-119q0 -54 -39 -92.5t-94 -38.5q-54 0 -92.5 38.5t-38.5 92.5v92q-148 24 -240 90q-55 37 -68.5 102.5t23.5 122.5q47 67 123 70q26 3 53 -5.5t60 -24t51 -21.5q54 -22 114 -11.5t95 54.5q29 37 34.5 80.5t-15 83.5t-64.5 63
q-29 15 -93 33.5t-122.5 47.5t-112.5 83q-61 61 -94 142t-31 169q2 119 62.5 220t166.5 159q24 14 58 27v104q0 55 38.5 93t92.5 38q56 0 94.5 -38t38.5 -93v-73q104 -14 170 -62q47 -34 66 -81t10 -89.5t-40 -77.5t-77 -47q-49 -13 -133 21q-67 23 -122 10.5t-84 -56.5
t-11 -96q9 -28 46.5 -53.5t73 -39.5t88.5 -31.5t66 -22.5q110 -44 183 -152.5t73 -228.5z" />
    <glyph glyph-name="percent" unicode="%" horiz-adv-x="1683" 
d="M618 66l668 1275q23 44 9.5 91.5t-56.5 70.5q-46 24 -95.5 10t-72.5 -57l-668 -1278q-23 -44 -7 -93t59 -71q39 -22 88.5 -8.5t74.5 60.5zM418 805q147 0 252.5 104t105.5 254q0 146 -106 252.5t-252 106.5q-148 0 -252.5 -106t-104.5 -253q0 -151 103.5 -254.5
t253.5 -103.5zM418 1276q46 0 80 -34t34 -79q0 -49 -33.5 -81.5t-80.5 -32.5t-80 32.5t-33 81.5q0 45 34 79t79 34zM1276 0q147 0 251.5 104t104.5 254q0 145 -105 251t-251 106q-149 0 -253.5 -105.5t-104.5 -251.5q0 -151 103.5 -254.5t254.5 -103.5zM1276 471
q46 0 79.5 -33.5t33.5 -79.5t-33.5 -80t-79.5 -34q-49 0 -82 33.5t-33 80.5q0 46 33 79.5t82 33.5z" />
    <glyph glyph-name="ampersand" unicode="&#x26;" horiz-adv-x="1226" 
d="M1090 778q57 -28 78 -88t-7 -117l-110 -229l71 -88q41 -49 36.5 -112.5t-54.5 -102.5q-50 -41 -111 -37.5t-104 55.5l-21 25q-136 -102 -307 -102q-136 0 -251 66.5t-182 181t-67 249.5q0 105 42.5 202.5t117.5 166.5q-86 114 -86 254q0 175 125.5 300.5t300.5 125.5
q176 0 301 -125.5t125 -300.5q0 -128 -70 -233.5t-182 -155.5l99 -115l51 109q28 57 88 78t117 -7zM561 1221q-50 0 -84.5 -35.5t-34.5 -83.5q0 -51 34 -87t85 -36t85 36t34 87q0 48 -34.5 83.5t-84.5 35.5zM668 317l-250 295q-51 -54 -51 -133q0 -62 31 -108t77 -66
t98.5 -17.5t94.5 29.5z" />
    <glyph glyph-name="quotesingle" unicode="'" horiz-adv-x="415" 
d="M111 1157l-45 201q-15 63 27.5 113t105.5 45q42 -3 74.5 -31t43.5 -70l45 -201q8 -37 -5 -75t-42 -58q-26 -17 -58 -21t-61 5t-52.5 33t-32.5 59z" />
    <glyph glyph-name="parenleft" unicode="(" horiz-adv-x="624" 
d="M508 -100q46 31 59.5 87.5t-16.5 104.5q-176 265 -176 602q0 330 176 604q31 47 19 105t-62 88q-51 31 -108 20.5t-87 -59.5q-221 -343 -221 -758t221 -753q34 -52 92 -62.5t103 21.5z" />
    <glyph glyph-name="parenright" unicode=")" horiz-adv-x="626" 
d="M311 -59q224 369 224 753q0 410 -224 758q-32 50 -88 61.5t-106 -20.5q-49 -32 -61.5 -89t18.5 -106q178 -279 178 -604q0 -322 -176 -602q-31 -49 -19 -105.5t62 -88.5q30 -20 65.5 -23t70 13.5t56.5 52.5z" />
    <glyph glyph-name="asterisk" unicode="*" horiz-adv-x="968" 
d="M827 1171q38 0 64.5 -26t26.5 -64q0 -37 -26.5 -63.5t-64.5 -26.5h-127l93 -88q25 -28 25.5 -64t-25.5 -63q-28 -27 -64 -27t-63 27l-91 88v-127q0 -37 -26.5 -63.5t-63.5 -26.5t-63.5 26.5t-26.5 63.5v127l-90 -88q-26 -26 -61.5 -26t-63.5 26q-27 27 -27 63.5t27 63.5
l88 88h-127q-37 0 -63.5 26.5t-26.5 63.5q0 38 26.5 64t63.5 26h127l-88 91q-28 26 -28 63.5t28 63.5q25 26 62 26t63 -26l90 -91v127q0 37 26.5 64t63.5 27t63.5 -27t26.5 -64v-127l91 91q26 26 63.5 26t63.5 -26q25 -26 25 -63.5t-25 -63.5l-93 -91h127z" />
    <glyph glyph-name="plus" unicode="+" horiz-adv-x="1187" 
d="M1008 698q58 0 98.5 -40t40.5 -99q0 -57 -40.5 -97t-98.5 -40h-271v-283q0 -59 -40.5 -99t-98.5 -40q-57 0 -97 40.5t-40 98.5v283h-271q-58 0 -98.5 40t-40.5 97q0 59 40.5 99t98.5 40h271v258q0 58 40 99t97 41q58 0 98.5 -40.5t40.5 -99.5v-258h271z" />
    <glyph glyph-name="comma" unicode="," horiz-adv-x="405" 
d="M295 -127l47 201q14 62 -28.5 111.5t-106.5 45.5q-42 -3 -75 -31t-42 -69l-45 -201q-9 -36 4.5 -72.5t42.5 -58.5q36 -22 77.5 -23.5t78.5 25.5t47 72z" />
    <glyph glyph-name="hyphen" unicode="-" horiz-adv-x="849" 
d="M621 457q65 0 111 45.5t46 111.5q0 65 -46.5 111.5t-110.5 46.5h-392q-64 0 -110.5 -46.5t-46.5 -111.5q0 -66 46 -111.5t111 -45.5h392z" />
    <glyph glyph-name="period" unicode="." horiz-adv-x="395" 
d="M344 147q0 60 -43 103t-104 43q-60 0 -103 -43t-43 -103q0 -61 43 -104t103 -43q61 0 104 43t43 104z" />
    <glyph glyph-name="slash" unicode="/" horiz-adv-x="808" 
d="M266 78l492 1274q20 47 -1 92.5t-69 64.5q-46 19 -92.5 -1.5t-65.5 -69.5l-491 -1272q-19 -46 2 -92.5t68 -65.5q41 -15 89.5 2.5t67.5 67.5z" />
    <glyph glyph-name="zero" unicode="0" horiz-adv-x="1204" 
d="M602 -12q139 0 256.5 68.5t185.5 186t68 255.5v520q0 138 -68 255.5t-185.5 186t-256.5 68.5q-137 0 -254.5 -68.5t-186.5 -186t-69 -255.5v-520q0 -138 69 -255.5t186.5 -186t254.5 -68.5zM418 1018q0 76 54 131t130 55t130 -55t54 -131v-520q0 -76 -54 -131.5
t-130 -55.5t-130 55.5t-54 131.5v520z" />
    <glyph glyph-name="one" unicode="1" horiz-adv-x="759" 
d="M481 1516q64 0 110 -49t46 -115v-1188q0 -68 -48.5 -116t-115.5 -48t-115.5 48t-48.5 116v1065h-114q-59 0 -101.5 41.5t-42.5 101.5q0 58 42.5 101t101.5 43h286z" />
    <glyph glyph-name="two" unicode="2" 
d="M905 330q69 0 117.5 -48t48.5 -116q0 -69 -48.5 -117.5t-117.5 -48.5h-639q-46 0 -85 25.5t-60.5 63t-18.5 85t35 88.5l541 664q48 58 40.5 133.5t-67.5 124.5q-57 47 -133 39t-125 -66q-40 -49 -103 -55.5t-114 33.5q-49 41 -55.5 105.5t33.5 111.5q86 104 209.5 150.5
t253.5 25.5t233 -107q161 -135 182 -331t-114 -363l-326 -397h313z" />
    <glyph glyph-name="three" unicode="3" horiz-adv-x="1132" 
d="M877 850q72 -70 112.5 -163.5t40.5 -197.5q0 -136 -67.5 -251.5t-183 -182.5t-251.5 -67q-134 0 -250.5 66.5t-183.5 181.5q-34 59 -16.5 124t74.5 99q58 34 123.5 17t99.5 -75q25 -43 67.5 -66.5t87 -21.5t84.5 20.5t65.5 60t25.5 95.5q0 52 -29.5 95t-77.5 65
q-23 10 -63 14t-56 9q-52 15 -85.5 59t-33.5 98q0 64 40.5 110t105.5 50q123 7 123 109q0 63 -56.5 93t-109.5 -7q-55 -38 -122 -26t-105 67q-39 55 -28 120t66 105q64 46 140.5 65t151.5 12t145.5 -40.5t124 -86.5t86 -131.5t32.5 -170.5q0 -138 -77 -248z" />
    <glyph glyph-name="four" unicode="4" horiz-adv-x="1275" 
d="M1194 422q0 -63 -44.5 -107.5t-107.5 -44.5v-108q0 -67 -47.5 -114.5t-113.5 -47.5q-68 0 -116 47.5t-48 114.5v108h-488q-52 1 -88 30.5t-49 70.5q-25 77 33 159q7 9 302 445t304 450q66 91 150 91q66 0 113.5 -47.5t47.5 -114.5v-781q63 0 107.5 -44t44.5 -107z
M498 573h219v324z" />
    <glyph glyph-name="five" unicode="5" horiz-adv-x="1183" 
d="M553 1065q146 0 270 -72t196.5 -196t72.5 -271q0 -146 -72.5 -270t-196.5 -196t-270 -72q-125 0 -236 55t-190 154q-43 56 -34 122t65 109q54 40 120 31.5t107 -62.5q42 -55 108.5 -72t126 1t103 72t43.5 128q0 88 -62 150.5t-151 62.5q-68 0 -127 -43
q-56 -43 -122.5 -34t-106.5 63q-45 56 -31 133l76 518q7 60 54 100t107 40h455q67 0 114.5 -48t47.5 -114q0 -69 -47.5 -117.5t-114.5 -48.5h-315l-19 -123h29z" />
    <glyph glyph-name="six" unicode="6" horiz-adv-x="1261" 
d="M721 1059q199 -25 334 -177.5t135 -355.5q0 -146 -72.5 -270t-196.5 -196t-270 -72q-145 0 -269 72t-196.5 196t-72.5 270q0 139 61 248l391 660q35 58 100.5 75.5t122.5 -16.5t74.5 -100t-16.5 -125zM651 313q89 0 151 62.5t62 150.5q0 87 -62 150t-151 63
q-87 0 -149 -63.5t-62 -149.5q0 -88 61.5 -150.5t149.5 -62.5z" />
    <glyph glyph-name="seven" unicode="7" horiz-adv-x="1069" 
d="M997 1292l-458 -1188q-27 -70 -86.5 -91.5t-124.5 -2.5q-63 18 -90 83.5t-2 129.5l370 965h-368q-69 0 -117.5 48t-48.5 116t48.5 116t117.5 48h604q85 0 137.5 -67.5t17.5 -156.5z" />
    <glyph glyph-name="eight" unicode="8" horiz-adv-x="1189" 
d="M932 840q73 -68 114 -162t41 -197q0 -134 -66 -247.5t-179.5 -179.5t-247.5 -66q-99 0 -190 39t-157.5 105t-105.5 157.5t-39 191.5q0 103 41.5 196.5t114.5 162.5q-90 118 -90 262q0 176 125.5 301t300.5 125q177 0 302.5 -124.5t125.5 -301.5q0 -144 -90 -262z
M594 1221q-50 0 -84.5 -34.5t-34.5 -84.5q0 -51 34.5 -86t84.5 -35q51 0 86 35t35 86q0 50 -35 84.5t-86 34.5zM594 295q78 0 132 54t54 132q0 76 -54.5 131.5t-131.5 55.5q-76 0 -130 -55.5t-54 -131.5q0 -78 53.5 -132t130.5 -54z" />
    <glyph glyph-name="nine" unicode="9" horiz-adv-x="1200" 
d="M541 457q-199 26 -334 178.5t-135 355.5q0 147 72 271t196 196t270 72q147 0 271 -72t196 -196t72 -271q0 -154 -57 -248l-396 -663q-34 -59 -99 -75.5t-124 18.5q-58 34 -74 99.5t19 123.5zM610 1204q-88 0 -150.5 -62.5t-62.5 -150.5t62.5 -150.5t150.5 -62.5
q93 0 154 63.5t61 149.5q0 88 -63 150.5t-152 62.5z" />
    <glyph glyph-name="colon" unicode=":" horiz-adv-x="389" 
d="M328 887q0 57 -41.5 97t-98.5 40t-97 -40t-40 -97q0 -58 40 -98.5t97 -40.5t98.5 40.5t41.5 98.5zM328 137q0 58 -41.5 98.5t-98.5 40.5t-97 -40.5t-40 -98.5q0 -57 40 -97t97 -40t98.5 40t41.5 97z" />
    <glyph glyph-name="semicolon" unicode=";" horiz-adv-x="419" 
d="M358 879q0 60 -43 102.5t-104 42.5q-60 0 -102.5 -42.5t-42.5 -102.5q0 -61 42.5 -104.5t102.5 -43.5q61 0 104 43t43 105zM305 -127l47 201q14 62 -28.5 111.5t-106.5 45.5q-42 -3 -75 -31t-42 -69l-45 -201q-9 -36 4.5 -72.5t42.5 -58.5q36 -22 77.5 -23.5t78.5 25.5
t47 72z" />
    <glyph glyph-name="less" unicode="&#x3c;" horiz-adv-x="999" 
d="M928 63q30 51 17.5 107t-60.5 90l-404 252l404 254q48 34 60.5 90t-17.5 107q-29 48 -86.5 60.5t-104.5 -19.5l-592 -373q-63 -40 -63 -118t63 -118l592 -375q45 -31 102.5 -19.5t88.5 62.5z" />
    <glyph glyph-name="equal" unicode="=" horiz-adv-x="1249" 
d="M1038 604q58 0 99 40t41 97t-41 98.5t-99 41.5h-817q-58 0 -98.5 -41.5t-40.5 -98.5t40.5 -97t98.5 -40h817zM1038 262q58 0 99 41t41 98t-41 98.5t-99 41.5h-817q-58 0 -98.5 -41.5t-40.5 -98.5t40.5 -98t98.5 -41h817z" />
    <glyph glyph-name="greater" unicode="&#x3e;" horiz-adv-x="999" 
d="M268 20l586 375q62 40 62.5 118t-62.5 118l-586 373q-53 31 -108 19t-88 -60q-29 -51 -16.5 -107t59.5 -90l403 -254l-403 -252q-49 -30 -61 -88t18 -109q32 -56 91 -66t105 23z" />
    <glyph glyph-name="question" unicode="?" horiz-adv-x="997" 
d="M637 629q133 50 216 166.5t83 263.5q0 92 -36.5 176.5t-98 146t-146.5 98t-178 36.5q-139 0 -253.5 -76t-170.5 -205q-26 -62 -0.5 -123.5t88.5 -89.5q62 -26 123.5 -0.5t89.5 88.5q14 38 45.5 59.5t67 21.5t68.5 -13t55 -45t22 -74q0 -57 -39.5 -96t-95.5 -39
q-42 0 -78.5 -21t-58.5 -57q-13 -22 -19.5 -50.5t-7 -43t-0.5 -52.5v-176q0 -66 48.5 -114t115.5 -48q66 0 113 48t47 114v105zM637 147q0 62 -43.5 106t-104.5 44t-104 -44t-43 -106q0 -61 43 -104t104 -43q62 0 105 43t43 104z" />
    <glyph glyph-name="at" unicode="@" horiz-adv-x="1662" 
d="M831 1528q156 0 299 -61t246 -164.5t164.5 -246t61.5 -298.5q0 -192 -86 -352q-46 -87 -133.5 -133t-186.5 -31q-77 9 -140.5 55.5t-97.5 116.5q-74 -33 -151 -33q-151 0 -258 107t-107 260q0 151 107 257.5t258 106.5q77 0 147 -31q39 52 99 52q52 0 87.5 -35.5
t35.5 -85.5v-469q2 -22 17 -39.5t38 -20.5q58 -7 90 86q26 76 28 160.5t-18.5 164.5t-65 153.5t-106 128t-146.5 87.5t-182 33q-142 1 -263.5 -72.5t-191 -197.5t-69.5 -268q0 -143 70 -264t190.5 -191t263.5 -70q46 0 119 15q51 11 95.5 -16t54.5 -76q11 -50 -16 -93
t-76 -55q-81 -20 -177 -20q-209 0 -386 103.5t-280.5 280.5t-103.5 386t103.5 386t280.5 280.5t386 103.5zM807 627q51 0 87 35t36 86q0 50 -36 85t-87 35q-50 0 -85.5 -35.5t-35.5 -84.5q0 -51 35.5 -86t85.5 -35z" />
    <glyph glyph-name="A" unicode="A" horiz-adv-x="1527" 
d="M1442 229q27 -62 3 -123t-85 -92q-37 -16 -76.5 -15.5t-78.5 27t-60 72.5l-72 162h-627l-73 -162q-21 -45 -59 -70.5t-77.5 -26.5t-78.5 13q-61 26 -85.5 90t3.5 125l530 1186q24 59 86 86q66 26 133 0q57 -23 86 -86zM594 586h332l-166 372z" />
    <glyph glyph-name="B" unicode="B" horiz-adv-x="1093" 
d="M901 784q131 -141 131 -323q0 -126 -62 -232t-168 -167.5t-231 -61.5h-317q-66 0 -114 48t-48 114v1192q0 66 48 114t114 48h274q125 0 231 -61.5t168 -167.5t62 -232q0 -145 -88 -271zM418 1188v-266h110q56 0 96 39t40 94t-40 94t-96 39h-110zM571 328q56 0 96 39
t40 94t-40 94t-96 39h-153v-266h153z" />
    <glyph glyph-name="C" unicode="C" horiz-adv-x="1425" 
d="M821 -12q263 0 467 157q54 41 63 108.5t-32 121.5t-107.5 62.5t-121.5 -31.5q-123 -93 -269 -93q-184 0 -314 131t-130 314t130 313.5t314 130.5q149 0 271 -92q54 -41 120 -33t109 62q40 55 31.5 121.5t-62.5 107.5q-207 160 -469 160q-209 0 -386 -103.5t-280.5 -280.5
t-103.5 -386t103.5 -386t280.5 -280.5t386 -103.5z" />
    <glyph glyph-name="D" unicode="D" horiz-adv-x="1398" 
d="M590 1516q154 0 294.5 -60t242 -161.5t161.5 -242t60 -294.5t-60 -294.5t-161.5 -242t-242 -161.5t-294.5 -60h-340q-65 0 -111.5 48.5t-46.5 115.5v1188q0 68 48 116t116 48h334zM590 328q177 0 302.5 126t125.5 304t-125.5 304t-302.5 126h-170v-860h170z" />
    <glyph glyph-name="E" unicode="E" horiz-adv-x="999" 
d="M766 328q66 0 114 -48.5t48 -117.5q0 -66 -48 -114t-114 -48h-510q-67 0 -115.5 48t-48.5 114v1192q0 66 48.5 114t115.5 48h510q66 0 114 -48t48 -114q0 -69 -48 -117.5t-114 -48.5h-346v-287h328q60 0 101.5 -42t41.5 -101q0 -60 -41.5 -102t-101.5 -42h-328v-286h346z
" />
    <glyph glyph-name="F" unicode="F" horiz-adv-x="958" 
d="M748 901q60 0 101.5 -42t41.5 -101q0 -60 -41.5 -102t-101.5 -42h-328v-452q0 -66 -48.5 -114t-117.5 -48q-66 0 -114 48t-48 114v1192q0 66 48 114t114 48h512q66 0 114 -48t48 -114q0 -69 -48 -117.5t-114 -48.5h-346v-287h328z" />
    <glyph glyph-name="G" unicode="G" horiz-adv-x="1636" 
d="M1409 897q68 -2 114 -52.5t42 -119.5q-6 -150 -63.5 -283.5t-160.5 -234.5q-104 -106 -240.5 -162.5t-285.5 -56.5q-155 0 -294 58.5t-245 168.5q-104 109 -159.5 249t-55.5 294q0 209 103 386t280.5 280.5t386.5 103.5q193 0 369 -92q60 -34 79 -99t-13 -125t-98 -79
t-124 14q-104 55 -213 55q-183 0 -312.5 -130.5t-129.5 -313.5q0 -190 123 -316q123 -129 303 -129q139 0 248 82.5t151 214.5h-374q-59 0 -101.5 42t-42.5 102q0 58 42.5 100.5t101.5 42.5h569z" />
    <glyph glyph-name="H" unicode="H" horiz-adv-x="1263" 
d="M1020 1516q66 0 114 -48t48 -114v-1192q0 -66 -48 -114t-114 -48q-67 0 -114.5 48t-47.5 114v452h-442v-452q0 -66 -47.5 -114t-114.5 -48q-66 0 -114 48t-48 114v1192q0 66 48 114t114 48q67 0 114.5 -48t47.5 -114v-453h442v453q0 66 47.5 114t114.5 48z" />
    <glyph glyph-name="I" unicode="I" horiz-adv-x="497" 
d="M254 0q67 0 114.5 48t47.5 114v1192q0 66 -47.5 114t-114.5 48t-114.5 -48t-47.5 -114v-1192q0 -66 47.5 -114t114.5 -48z" />
    <glyph glyph-name="J" unicode="J" horiz-adv-x="774" 
d="M225 -12q202 0 332 145q125 131 125 330v889q0 68 -48 116t-116 48q-66 0 -114 -48.5t-48 -115.5v-889q0 -58 -34.5 -103t-96.5 -45q-68 0 -116 -48t-48 -115q0 -68 48.5 -116t115.5 -48z" />
    <glyph glyph-name="K" unicode="K" horiz-adv-x="1126" 
d="M1036 274q44 -50 40 -118.5t-56 -112.5q-52 -45 -117 -42.5t-112 54.5l-373 420v-313q0 -66 -48 -114t-114 -48q-67 0 -115.5 48t-48.5 114v1192q0 66 48.5 114t115.5 48q66 0 114 -48t48 -114v-307l336 385q46 51 113 55.5t118 -41.5q51 -43 55.5 -110.5t-39.5 -118.5
l-399 -457z" />
    <glyph glyph-name="L" unicode="L" horiz-adv-x="966" 
d="M766 0q68 0 116 48t48 116t-48 116t-116 48h-346v1024q0 68 -48.5 116t-117.5 48q-66 0 -114 -48.5t-48 -115.5v-1188q0 -67 48 -115.5t114 -48.5h512z" />
    <glyph glyph-name="M" unicode="M" horiz-adv-x="1685" 
d="M1440 1516q68 0 116 -48t48 -116v-1188q0 -68 -48 -116t-116 -48q-69 0 -117.5 48t-48.5 116v579l-297 -608q-20 -39 -55 -60.5t-74 -21.5q-40 0 -75 22t-54 60l-299 608v-579q0 -68 -48.5 -116t-117.5 -48q-66 0 -114 48.5t-48 115.5v1188q0 67 48 115.5t114 48.5
q105 0 170 -127q111 -232 424 -869q66 137 172.5 354t176.5 360.5t75 154.5q62 127 168 127z" />
    <glyph glyph-name="N" unicode="N" horiz-adv-x="1372" 
d="M1126 1516q67 0 115.5 -48t48.5 -114v-1190q0 -54 -30.5 -94.5t-73.5 -56.5t-93.5 -7t-88.5 45q-20 20 -56 76q-17 27 -260 382t-268 390v-735q0 -68 -48 -116t-116 -48t-116 48t-48 116v1190q0 66 48.5 114t115.5 48q74 0 131 -70q35 -46 578 -836v744q0 66 47 114
t114 48z" />
    <glyph glyph-name="O" unicode="O" horiz-adv-x="1662" 
d="M831 1528q157 0 299.5 -61t246 -164t164.5 -245.5t61 -299.5t-61 -299.5t-164.5 -245.5t-246 -164t-299.5 -61q-209 0 -386 103t-280.5 280.5t-103.5 386.5t103.5 386.5t280.5 280.5t386 103zM829 1202q-184 0 -312 -129.5t-128 -314.5t128 -315t312 -130
q119 0 221.5 60.5t163 163t60.5 221.5t-60.5 221.5t-163 162.5t-221.5 60z" />
    <glyph glyph-name="P" unicode="P" horiz-adv-x="1075" 
d="M573 1516q128 0 236.5 -63t171.5 -171t63 -235q0 -128 -63 -236.5t-171.5 -172t-236.5 -63.5h-153v-411q0 -68 -48 -116t-116 -48q-69 0 -116.5 48t-47.5 116v1188q0 68 47.5 116t116.5 48h317zM573 903q60 0 102 41.5t42 102.5q0 59 -42 100t-102 41h-153v-285h153z" />
    <glyph glyph-name="Q" unicode="Q" horiz-adv-x="1662" 
d="M1448 297l55 -55q40 -39 40.5 -97.5t-40.5 -101.5q-42 -43 -102 -43.5t-105 43.5l-59 61q-180 -118 -406 -118q-156 0 -298.5 60.5t-246 163.5t-164.5 246.5t-61 301.5q0 209 103.5 386t280.5 279.5t386 102.5q156 0 298.5 -60.5t246 -163t165 -245t61.5 -299.5
q0 -257 -154 -461zM831 313q91 0 164 33l-41 41q-41 42 -40.5 100.5t40.5 98.5q43 42 101.5 42t103.5 -42l53 -51q62 95 62 223q0 183 -129.5 311.5t-313.5 128.5q-188 0 -316 -127t-128 -313q0 -188 128.5 -316.5t315.5 -128.5z" />
    <glyph glyph-name="R" unicode="R" horiz-adv-x="1077" 
d="M1024 248q34 -60 17 -124t-76 -99q-53 -35 -120 -21t-104 76l-290 495h-31v-411q0 -68 -48.5 -116t-117.5 -48q-66 0 -114 48.5t-48 115.5v1188q0 67 48 115.5t114 48.5h319q128 0 236 -63t170.5 -171t62.5 -235q0 -133 -66.5 -244t-178.5 -170zM717 1047q0 59 -42 100
t-102 41h-153v-285h153q60 0 102 41.5t42 102.5z" />
    <glyph glyph-name="S" unicode="S" horiz-adv-x="1015" 
d="M836 160q65 71 94.5 161.5t21.5 186.5q-11 121 -80 225.5t-178 159.5q-24 12 -95 35t-118.5 49t-62.5 63q-14 36 0.5 71t47.5 56t78.5 28t92.5 -13q76 -31 137.5 -18t97.5 71q34 54 16.5 122t-75.5 103q-116 68 -248.5 67t-247.5 -65q-107 -60 -168 -161t-63 -220
q-1 -87 32 -169t95 -144q48 -48 112.5 -79t128.5 -52t89 -35q67 -34 81 -103t-36 -124q-80 -88 -211 -45q-16 6 -50.5 22.5t-61 24.5t-52.5 6q-80 -7 -123 -72q-37 -57 -25 -124.5t68 -102.5q106 -66 228.5 -86.5t251.5 18.5t223 144z" />
    <glyph glyph-name="T" unicode="T" horiz-adv-x="1044" 
d="M848 1516q69 0 117.5 -48t48.5 -116t-48.5 -116t-117.5 -48h-158v-1024q0 -67 -48 -115.5t-114 -48.5q-67 0 -115 48t-48 116v1024h-158q-69 0 -117.5 48t-48.5 116t48.5 116t117.5 48h641z" />
    <glyph glyph-name="U" unicode="U" horiz-adv-x="1165" 
d="M588 -12q209 0 357.5 148.5t148.5 357.5v860q0 66 -48.5 114t-115.5 48q-66 0 -114 -48t-48 -114v-860q0 -74 -52.5 -126.5t-127.5 -52.5t-127.5 52.5t-52.5 126.5v860q0 66 -48 114t-114 48q-67 0 -115.5 -48t-48.5 -114v-860q0 -209 148.5 -357.5t357.5 -148.5z" />
    <glyph glyph-name="V" unicode="V" horiz-adv-x="1363" 
d="M1219 1503q63 -26 90 -88t2 -125l-471 -1186q-20 -48 -61.5 -76t-92.5 -28t-91.5 28t-59.5 76l-472 1186q-26 63 1 125t92 88q63 25 124.5 -2t86.5 -90l319 -807l320 807q26 63 88 90t125 2z" />
    <glyph glyph-name="W" unicode="W" horiz-adv-x="1761" 
d="M1604 1509q69 -19 104.5 -81.5t15.5 -131.5l-327 -1169q-22 -78 -86.5 -109t-128.5 -12q-97 29 -135 170q-18 75 -162 615q-144 -540 -162 -615q-35 -146 -133 -170q-66 -17 -129 12t-86 109l-328 1169q-19 69 16.5 131.5t104.5 81.5q69 20 131 -14.5t82 -103.5l190 -676
l177 665q12 47 51.5 77t85.5 30q47 0 86.5 -30t52.5 -77l176 -665l189 676q20 69 83 103.5t132 14.5z" />
    <glyph glyph-name="X" unicode="X" horiz-adv-x="1249" 
d="M829 756l349 -502q39 -55 27 -118t-66 -105q-46 -40 -117.5 -29t-110.5 68l-282 403l-283 -403q-42 -60 -110 -70.5t-117 31.5q-52 42 -64 105t27 118l348 502l-348 501q-40 56 -28.5 122t67.5 106q54 39 120.5 27.5t104.5 -66.5l283 -406l282 406q38 55 105 66.5
t121 -27.5q56 -40 68 -106t-27 -122z" />
    <glyph glyph-name="Y" unicode="Y" horiz-adv-x="1177" 
d="M1069 1485q55 -40 66.5 -106.5t-27.5 -121.5l-350 -501v-594q0 -66 -48.5 -114t-115.5 -48t-114.5 48t-47.5 114v594l-350 501q-40 56 -28.5 122t67.5 106q55 39 121 27.5t104 -66.5l248 -354l248 354q38 55 104 66t123 -27z" />
    <glyph glyph-name="Z" unicode="Z" horiz-adv-x="1251" 
d="M1044 328q68 0 116 -48.5t48 -117.5q0 -66 -48.5 -114t-115.5 -48h-829q-47 0 -92 31q-56 38 -67.5 104t28.5 123l666 952h-545q-63 0 -108.5 45.5t-45.5 108.5t45.5 107.5t108.5 44.5h835q64 0 101 -29q53 -42 65 -106.5t-26 -120.5l-652 -932h516z" />
    <glyph glyph-name="bracketleft" unicode="[" horiz-adv-x="628" 
d="M424 -287q58 0 100.5 42.5t42.5 101.5t-42.5 101t-100.5 42h-45v1229h45q58 0 100.5 42.5t42.5 100.5q0 59 -42.5 101.5t-100.5 42.5h-188q-58 0 -101 -43t-43 -101v-1515q0 -59 43 -101.5t101 -42.5h188z" />
    <glyph glyph-name="backslash" unicode="\" horiz-adv-x="808" 
d="M700 8q46 19 66.5 65.5t3.5 92.5l-491 1272q-19 49 -65.5 69.5t-94.5 1.5q-46 -19 -67 -64.5t-3 -92.5l494 -1274q14 -36 44.5 -56t59.5 -20t53 6z" />
    <glyph glyph-name="bracketright" unicode="]" horiz-adv-x="628" 
d="M393 -287q59 0 101.5 42.5t42.5 101.5v1515q0 58 -42.5 101t-101.5 43h-188q-59 0 -101.5 -43t-42.5 -101t42.5 -100.5t101.5 -42.5h45v-1229h-45q-59 0 -101.5 -42.5t-42.5 -100.5q0 -59 42.5 -101.5t101.5 -42.5h188z" />
    <glyph glyph-name="asciicircum" unicode="^" horiz-adv-x="1062" 
d="M930 471q51 28 67 81.5t-12 104.5l-332 607q-17 33 -50 52t-73 19q-79 0 -122 -71l-330 -607q-28 -51 -12.5 -105.5t65.5 -80.5q53 -29 108 -12.5t83 67.5l208 377l213 -377q32 -56 86.5 -70t100.5 15z" />
    <glyph glyph-name="underscore" unicode="_" horiz-adv-x="1165" 
d="M1018 -231q47 0 82 33.5t35 82.5q0 48 -35 81.5t-82 33.5h-871q-50 0 -83 -33t-33 -82t33.5 -82.5t82.5 -33.5h871z" />
    <glyph glyph-name="a" unicode="a" horiz-adv-x="1191" 
d="M956 1024q63 0 108.5 -45.5t45.5 -108.5v-716q0 -63 -45.5 -108.5t-108.5 -45.5q-65 0 -114 49q-124 -65 -256 -65q-142 0 -263 70t-191.5 191t-70.5 263t70.5 263t191.5 191t263 70q128 0 252 -65q45 57 118 57zM586 309q83 0 140.5 58t57.5 141t-57.5 141t-140.5 58
t-141 -58t-58 -141t58 -141t141 -58z" />
    <glyph glyph-name="b" unicode="b" 
d="M606 1032q106 0 203.5 -41.5t167.5 -111.5t111.5 -167.5t41.5 -203.5t-41.5 -203.5t-111.5 -167.5t-167.5 -111.5t-203.5 -41.5q-136 0 -256 65q-46 -49 -112 -49t-111 45t-45 111v1036q0 61 44.5 106.5t106.5 47.5h17q66 0 112 -47t46 -115v-191q92 39 198 39zM606 309
q82 0 140.5 58.5t58.5 140.5q0 83 -58.5 141t-140.5 58t-140 -58t-58 -141q0 -82 58 -140.5t140 -58.5z" />
    <glyph glyph-name="c" unicode="c" horiz-adv-x="1019" 
d="M586 -16q181 0 319 108q54 39 62.5 106t-31.5 121q-41 54 -108 63t-121 -32q-53 -41 -121 -41q-82 0 -140.5 58.5t-58.5 140.5t58.5 140.5t140.5 58.5q68 0 121 -41q54 -41 121 -32.5t108 62.5q41 52 32 119.5t-63 108.5q-138 108 -319 108q-142 0 -263 -70t-191.5 -191
t-70.5 -263t70.5 -263t191.5 -191t263 -70z" />
    <glyph glyph-name="d" unicode="d" 
d="M31 508q0 106 41.5 203.5t111.5 167.5t167.5 111.5t203.5 41.5q104 0 199 -39v191q0 67 46 114.5t113 47.5h15q62 -2 106.5 -47.5t44.5 -108.5v-1036q0 -63 -45.5 -108.5t-109.5 -45.5q-67 0 -113 49q-120 -65 -256 -65q-106 0 -203.5 41.5t-167.5 111.5t-111.5 167.5
t-41.5 203.5zM356 508q0 -83 58 -141t141 -58t141 58t58 141t-58 141t-141 58t-141 -58t-58 -141z" />
    <glyph glyph-name="e" unicode="e" horiz-adv-x="1153" 
d="M1102 573q9 -89 -43 -136.5t-144 -47.5h-544q44 -66 111.5 -98.5t140.5 -28t139 40.5q50 30 105 15.5t85 -64.5q29 -51 15 -107.5t-64 -85.5q-133 -77 -293 -77q-171 0 -304 85t-197 218q-47 97 -48 212.5t41 213.5q57 137 186.5 228t295.5 91q198 0 345.5 -131
t172.5 -328zM373 623h418q-14 61 -73.5 106t-135.5 45q-74 0 -134.5 -45.5t-74.5 -105.5z" />
    <glyph glyph-name="f" unicode="f" horiz-adv-x="679" 
d="M496 844q60 0 101.5 -42.5t41.5 -101.5t-41.5 -100t-101.5 -41h-121v-397q0 -66 -47.5 -114t-114.5 -48t-114.5 48t-47.5 114v762q0 177 124.5 301.5t301.5 124.5q67 0 114.5 -48t47.5 -114q0 -68 -47.5 -116t-114.5 -48q-41 0 -71.5 -29.5t-30.5 -70.5v-80h121z" />
    <glyph glyph-name="g" unicode="g" horiz-adv-x="1191" 
d="M952 1030q66 0 112 -45.5t46 -110.5v-780q0 -106 -41.5 -202t-111.5 -166t-166.5 -111t-202.5 -41q-117 0 -221 49q-58 28 -80 88.5t4 118.5q28 60 89.5 82t119.5 -6q52 -21 106 -18.5t104 38.5t74 97q-95 -39 -198 -39q-143 1 -264 71t-191 190.5t-70 262.5
q0 107 41.5 203.5t111.5 167t167.5 112t204.5 41.5q130 0 243 -61q46 59 123 59zM586 313q80 0 137 57t57 138q0 82 -57 139.5t-137 57.5q-82 0 -139.5 -57.5t-57.5 -139.5t57.5 -138.5t139.5 -56.5z" />
    <glyph glyph-name="h" unicode="h" horiz-adv-x="1021" 
d="M537 1036q189 0 321.5 -132.5t132.5 -321.5v-418q0 -68 -48.5 -116t-115.5 -48t-115 48t-48 116v418q0 52 -37 89.5t-90 37.5q-51 0 -88 -37.5t-37 -89.5v-418q0 -68 -48 -116t-116 -48q-69 0 -117.5 48t-48.5 116v1034q0 69 48.5 117.5t117.5 48.5q68 0 116 -48.5
t48 -117.5v-178q66 16 125 16z" />
    <glyph glyph-name="i" unicode="i" horiz-adv-x="481" 
d="M385 1223q0 57 -41 98t-98 41q-58 0 -100 -41t-42 -98q0 -59 42 -100.5t100 -41.5q57 0 98 42t41 100zM246 0q68 0 116 48t48 116v708q0 68 -48 116t-116 48t-116 -48t-48 -116v-708q0 -68 48 -116t116 -48z" />
    <glyph glyph-name="j" unicode="j" horiz-adv-x="636" 
d="M532 1223q0 57 -41.5 98t-99.5 41q-57 0 -98 -41t-41 -98q0 -58 41 -99t98 -41q59 0 100 41t41 99zM303 -365q119 71 185.5 191.5t66.5 261.5v782q0 68 -48 117t-116 49q-67 0 -115.5 -49t-48.5 -117v-782q0 -53 -25 -99t-71 -75q-59 -35 -75 -101.5t20 -123.5
q24 -40 65.5 -60t84 -17.5t77.5 23.5z" />
    <glyph glyph-name="k" unicode="k" horiz-adv-x="927" 
d="M852 272q47 -50 45.5 -115.5t-51.5 -115.5q-47 -48 -116 -46.5t-116 52.5l-204 213v-96q0 -68 -47.5 -116t-116.5 -48q-68 0 -116 48t-48 116v1030q0 69 48 117.5t116 48.5q69 0 116.5 -48.5t47.5 -117.5v-426l184 217q44 52 111.5 57.5t119.5 -38.5q52 -43 57.5 -111.5
t-38.5 -120.5l-219 -260z" />
    <glyph glyph-name="l" unicode="l" horiz-adv-x="471" 
d="M246 0q68 0 116 48t48 116v1034q0 68 -48 116t-116 48t-116 -48t-48 -116v-1034q0 -68 48 -116t116 -48z" />
    <glyph glyph-name="m" unicode="m" horiz-adv-x="1624" 
d="M1110 1034q122 0 226.5 -60.5t165.5 -164t61 -225.5v-420q0 -67 -49 -115.5t-115 -48.5t-115 48.5t-49 115.5v420q0 52 -36.5 88.5t-88.5 36.5q-51 0 -88 -36.5t-37 -88.5v-420q0 -68 -48.5 -116t-115.5 -48q-66 0 -115 48.5t-49 115.5v420q0 52 -37 88.5t-88 36.5
q-52 0 -88 -36t-36 -89v-420q0 -68 -48 -116t-116 -48q-66 0 -114 48.5t-48 115.5v704q0 66 45 111t109 45q55 0 98 -37q89 47 198 47q160 0 289 -104q129 104 289 104z" />
    <glyph glyph-name="n" unicode="n" horiz-adv-x="1044" 
d="M532 1034q187 0 319 -132t132 -318v-422q0 -66 -47.5 -114t-114.5 -48t-115.5 48t-48.5 114v422q0 52 -36.5 88.5t-88.5 36.5q-53 0 -89.5 -36.5t-36.5 -88.5v-422q0 -66 -47.5 -114t-114.5 -48t-114.5 48t-47.5 114v706q0 65 45 110.5t109 45.5q51 0 98 -35
q92 45 198 45z" />
    <glyph glyph-name="o" unicode="o" horiz-adv-x="1171" 
d="M586 1032q106 0 203.5 -41.5t167.5 -111.5t111.5 -167.5t41.5 -203.5t-41.5 -203.5t-111.5 -167.5t-167.5 -111.5t-203.5 -41.5q-142 0 -263 70t-191.5 191t-70.5 263t70.5 263t191.5 191t263 70zM586 707q-83 0 -141 -58t-58 -141t58 -141t141 -58t140.5 58t57.5 141
t-57.5 141t-140.5 58z" />
    <glyph glyph-name="p" unicode="p" 
d="M1130 516q0 -106 -41.5 -203.5t-111.5 -167.5t-167.5 -111.5t-203.5 -41.5q-103 0 -198 39v-191q0 -66 -47.5 -114t-114.5 -48h-15q-62 3 -105.5 48t-43.5 108v1036q0 63 45.5 108.5t108.5 45.5q68 0 114 -49q120 65 256 65q106 0 203.5 -41.5t167.5 -111.5t111.5 -167.5
t41.5 -203.5zM805 516q0 83 -58 141t-141 58t-140.5 -58t-57.5 -141t57.5 -141t140.5 -58t141 58t58 141z" />
    <glyph glyph-name="q" unicode="q" 
d="M555 -8q-106 0 -203.5 41.5t-167.5 111.5t-111.5 167.5t-41.5 203.5t41.5 203.5t111.5 167.5t167.5 111.5t203.5 41.5q136 0 256 -65q46 49 113 49q64 0 109.5 -45.5t45.5 -108.5v-1036q0 -62 -44.5 -107.5t-106.5 -48.5h-15q-67 0 -113 47.5t-46 114.5v191
q-95 -39 -199 -39zM555 715q-83 0 -141 -58t-58 -141t58 -141t141 -58t141 58t58 141t-58 141t-141 58z" />
    <glyph glyph-name="r" unicode="r" horiz-adv-x="739" 
d="M555 1030q67 -1 112 -51.5t42 -118.5q-3 -66 -53 -109.5t-119 -45.5q-55 -2 -93 -37.5t-38 -87.5v-418q0 -68 -47 -115t-115 -47t-115 47t-47 115v708q0 63 45 108.5t109 45.5q57 0 102 -39q88 45 217 45z" />
    <glyph glyph-name="s" unicode="s" horiz-adv-x="784" 
d="M463 754q124 -43 178 47q25 45 15.5 86.5t-40 72.5t-73.5 48q-115 45 -240.5 12.5t-198.5 -131.5q-46 -61 -53 -139.5t25 -145.5q42 -84 109 -130.5t173 -78.5q33 -9 42.5 -35t-9 -48t-53.5 -19q-20 1 -71.5 21.5t-78.5 21.5q-47 2 -85 -22t-57 -61t-16.5 -83t31.5 -84
q42 -56 132.5 -80t164.5 -20q104 6 191 62t127 149q41 91 24.5 197.5t-86.5 178.5q-70 77 -163 95q-22 4 -42 10.5t-39 22t-14 34.5q11 49 107 19z" />
    <glyph glyph-name="t" unicode="t" horiz-adv-x="733" 
d="M526 328q68 0 116 -48t48 -116t-48 -116t-116 -48h-30q-179 0 -296.5 123.5t-117.5 304.5v758q0 68 48 116t116 48t116 -48t48 -116v-162h149q60 0 101.5 -41.5t41.5 -101.5q0 -59 -41.5 -100.5t-101.5 -41.5h-149v-311q0 -42 22 -71t64 -29h30z" />
    <glyph glyph-name="u" unicode="u" horiz-adv-x="1048" 
d="M535 -16q187 0 319.5 132t132.5 320v426q0 66 -47.5 114t-116.5 48q-67 0 -114 -48t-47 -114v-426q0 -52 -37 -89.5t-90 -37.5t-90 37.5t-37 89.5v426q0 66 -47.5 114t-114.5 48q-68 0 -116 -48t-48 -114v-426q0 -187 132.5 -319.5t320.5 -132.5z" />
    <glyph glyph-name="v" unicode="v" horiz-adv-x="993" 
d="M502 0q49 0 89.5 28t59.5 74l287 697q27 65 0.5 125t-90.5 88q-62 27 -123.5 1t-89.5 -91l-133 -326l-135 326q-25 64 -88.5 91t-124.5 -1q-64 -28 -90.5 -88.5t-0.5 -124.5l287 -697q19 -46 61 -74t91 -28z" />
    <glyph glyph-name="w" unicode="w" horiz-adv-x="1576" 
d="M1446 1014q62 -26 88 -87.5t0 -123.5l-287 -703q-41 -100 -151 -100q-45 0 -86.5 23t-59.5 65l-155 385l-158 -385q-17 -41 -53 -64.5t-78 -23.5q-125 0 -166 100l-287 703q-26 62 0 123.5t88 87.5q63 26 124.5 0.5t86.5 -88.5l160 -391l150 364q17 41 53.5 64.5
t79.5 23.5q42 0 78 -23.5t53 -64.5l149 -364l160 391q25 63 87.5 88.5t123.5 -0.5z" />
    <glyph glyph-name="x" unicode="x" horiz-adv-x="1007" 
d="M928 268q43 -53 36.5 -119t-57.5 -110q-49 -44 -117.5 -39.5t-111.5 57.5l-170 203l-168 -203q-44 -53 -113 -58t-116 40q-52 46 -58.5 111t37.5 118l207 246l-207 248q-43 52 -37 119t58 110q51 43 118 37.5t111 -57.5l168 -203l170 203q42 52 109.5 57.5t119.5 -37.5
q51 -43 57.5 -109.5t-36.5 -119.5l-207 -248z" />
    <glyph glyph-name="y" unicode="y" horiz-adv-x="1077" 
d="M915 1016q63 -26 89 -88t0 -125l-316 -774q-57 -143 -96 -201q-64 -97 -175 -157t-237 -60q-55 0 -102.5 37t-46.5 108q0 60 42 101t101 41q68 -2 122.5 33t80.5 96l31 71l-291 705q-25 63 1.5 125t88.5 88q63 26 125.5 0t87.5 -88l141 -344l139 344q28 63 89 89t126 -1z
" />
    <glyph glyph-name="z" unicode="z" horiz-adv-x="1003" 
d="M799 326q67 0 115.5 -48t48.5 -114q0 -68 -48.5 -116t-115.5 -48h-582q-66 0 -114 47.5t-50 112.5q0 63 39 108l375 451h-262q-64 0 -109 44t-45 107t45 108.5t109 45.5h592q61 0 106 -39q52 -43 58 -110t-37 -119l-361 -430h236z" />
    <glyph glyph-name="braceleft" unicode="{" horiz-adv-x="946" 
d="M762 0q58 0 100.5 -42t42.5 -101q0 -61 -42 -102.5t-101 -41.5h-21q-163 0 -278 115t-115 278v252q0 46 -32 78.5t-78 32.5h-33q-63 0 -104.5 41.5t-41.5 101.5t41.5 102t104.5 42h33q46 0 78 32t32 78v252q0 163 115.5 280.5t277.5 117.5h21q58 0 100.5 -42.5
t42.5 -101.5q0 -61 -42 -102t-101 -41h-21q-43 0 -74.5 -32.5t-31.5 -78.5v-252q0 -139 -94 -254q94 -115 94 -254v-252q0 -43 31.5 -74.5t74.5 -31.5h21z" />
    <glyph glyph-name="bar" unicode="|" horiz-adv-x="430" 
d="M215 -389q50 0 86.5 35.5t36.5 87.5v1659q0 52 -36.5 87.5t-86.5 35.5q-53 0 -88 -35t-35 -88v-1659q0 -52 35 -87.5t88 -35.5z" />
    <glyph glyph-name="braceright" unicode="}" horiz-adv-x="946" 
d="M184 0q-58 0 -100.5 -42t-42.5 -101q0 -61 42 -102.5t101 -41.5h21q163 0 277 115t114 278v252q0 46 32.5 78.5t78.5 32.5h32q64 0 104 41.5t40 101.5t-41 102t-103 42h-32q-46 0 -78.5 32t-32.5 78v252q0 163 -114.5 280.5t-276.5 117.5h-21q-58 0 -100.5 -42.5
t-42.5 -101.5q0 -61 42 -102t101 -41h21q43 0 74.5 -32.5t31.5 -78.5v-252q0 -137 95 -254q-95 -117 -95 -254v-252q0 -43 -31.5 -74.5t-74.5 -31.5h-21z" />
    <glyph glyph-name="asciitilde" unicode="~" horiz-adv-x="1755" 
d="M356 262q20 23 34 68.5t24 62.5q31 54 80.5 74.5t105.5 9t103.5 -33t93.5 -52.5q120 -80 237.5 -114.5t217.5 -21.5t184.5 63t145 136.5t93.5 200.5q19 64 -16 122.5t-98 70.5q-69 13 -120.5 -25t-80.5 -114q-26 -69 -66.5 -105t-90.5 -38.5t-106.5 19.5t-121.5 68
q-338 228 -617 103q-80 -36 -142 -100.5t-94 -132t-40 -134.5q-8 -65 32.5 -117t106.5 -59q31 -4 70 7.5t65 41.5z" />
    <glyph glyph-name="exclamdown" unicode="&#xa1;" horiz-adv-x="468" 
d="M86 1366q0 -61 44 -105t106 -44t105.5 43.5t43.5 105.5t-44 106t-105 44q-62 0 -106 -44t-44 -106zM236 0q66 0 113.5 48t47.5 114v823q0 66 -47.5 114t-113.5 48q-67 0 -115.5 -48t-48.5 -114v-823q0 -66 48.5 -114t115.5 -48z" />
    <glyph glyph-name="cent" unicode="&#xa2;" horiz-adv-x="1021" 
d="M739 373q52 24 107.5 10t87.5 -61q43 -51 35 -118.5t-62 -111.5q-73 -53 -168 -84v-110q0 -57 -38 -96.5t-93 -39.5q-56 0 -95.5 39.5t-39.5 96.5v102q-177 35 -294.5 180t-117.5 330q0 188 117 332.5t295 181.5v86q0 57 39.5 96t95.5 39q55 0 93 -39t38 -96v-94
q87 -29 168 -84q54 -44 62.5 -112t-31.5 -122q-35 -47 -91 -60t-108 11v-276zM387 510q0 -101 86 -164v332q-86 -60 -86 -168z" />
    <glyph glyph-name="sterling" unicode="&#xa3;" horiz-adv-x="1228" 
d="M1024 588q63 0 108.5 -45.5t45.5 -108.5v-31q0 -171 -123 -287t-297 -116h-527q-63 0 -108 45.5t-45 108.5t45 108t108 45h123v215q0 45 -22 84h-135q-51 0 -88 37t-37 88q0 40 25 72.5t63 44.5q-37 61 -53.5 130t-6.5 150.5t50 157.5q58 110 162.5 175.5t230.5 66.5
q138 2 259.5 -60.5t192.5 -177.5q34 -54 20.5 -116.5t-67.5 -96.5q-55 -33 -117 -19t-96 68q-28 44 -78.5 70t-105.5 25q-77 -4 -119.5 -61t-21.5 -124q5 -15 13 -31t18 -32t19 -28.5t22 -28t20 -23.5t20 -22t15 -17h237q51 0 87 -36.5t36 -86.5q0 -51 -36 -88t-87 -37h-121
q6 -38 9 -80v-219h96q55 0 83.5 28.5t28.5 67.5v31q0 63 45 108.5t109 45.5z" />
    <glyph glyph-name="yen" unicode="&#xa5;" horiz-adv-x="1181" 
d="M977 756h-217v-68h217q60 0 100.5 -41t40.5 -100q0 -60 -40.5 -102t-100.5 -42h-217v-241q0 -66 -48.5 -114t-117.5 -48q-66 0 -114 48t-48 114v241h-219q-59 0 -100 42t-41 102q0 59 41 100t100 41h219v68h-219q-59 0 -100 41.5t-41 101.5q0 59 41 100t100 41h23
l-154 222q-40 56 -28.5 121.5t67.5 105.5q55 39 122 27.5t105 -66.5l246 -356l250 356q38 55 104 66t123 -27q56 -40 67.5 -105.5t-28.5 -121.5l-154 -222h21q60 0 100.5 -41t40.5 -100q0 -60 -40.5 -101.5t-100.5 -41.5z" />
    <glyph glyph-name="section" unicode="&#xa7;" horiz-adv-x="1003" 
d="M817 258q48 -79 61 -167.5t-13 -179t-93 -163.5q-122 -131 -303 -152.5t-338 82.5q-54 37 -67 100.5t22 117.5q36 53 98.5 64t118.5 -21q30 -16 69.5 -27t65.5 -8q68 6 104 52t25 101.5t-67 87.5q-24 14 -81.5 31t-115 44.5t-104.5 74.5q-82 82 -108 190t8.5 215
t123.5 185q-71 103 -71 233q1 79 31 150.5t79.5 124t117 87.5t140 47t151 -2.5t148.5 -56.5q56 -34 72 -95.5t-17 -117.5q-34 -56 -97.5 -73t-117.5 16q-42 22 -85 19t-76.5 -31.5t-34.5 -69.5q-2 -38 34 -69.5t91 -40.5q106 -17 187.5 -76t123 -142.5t51 -176.5t-25 -187
t-107.5 -166zM420 518q3 -3 6.5 -6t8 -6t8.5 -5t10.5 -5t10.5 -4.5t12.5 -4.5t13 -4.5t15 -4.5t15.5 -5l45 -18q60 35 72.5 88t-27.5 104q-26 32 -76.5 35t-84.5 -18q-45 -28 -53.5 -71t24.5 -75z" />
    <glyph glyph-name="copyright" unicode="&#xa9;" horiz-adv-x="1662" 
d="M834 1528q155 0 297.5 -61t245.5 -163.5t164 -245t61 -298.5q0 -210 -103.5 -388t-280 -281t-384.5 -103q-158 0 -301 61t-246.5 164t-164.5 246t-61 301q0 156 61 298.5t164.5 245t246.5 163.5t301 61zM834 1278q-144 0 -265 -68.5t-190.5 -187.5t-69.5 -262
q0 -142 70.5 -262.5t191.5 -190t263 -69.5q217 0 367.5 151.5t150.5 370.5q0 221 -149 369.5t-369 148.5zM842 375q145 0 239 78q40 34 46.5 84.5t-25.5 93.5q-31 41 -82.5 46.5t-91.5 -26.5q-30 -25 -70 -28t-75 12.5t-59 51t-24 81.5q0 47 24 82t58.5 49t74.5 10t71 -28
q39 -31 93.5 -23.5t84.5 49.5q30 43 22.5 92t-47.5 80q-114 80 -239 80q-107 -1 -197 -53.5t-142 -142t-52 -195.5q0 -164 114 -278.5t277 -114.5z" />
    <glyph glyph-name="guillemotleft" unicode="&#xab;" horiz-adv-x="1126" 
d="M549 168q40 41 40 99.5t-40 99.5l-150 149l150 150q40 40 40 97.5t-40 98.5q-41 41 -99 41t-98 -41l-250 -248q-42 -45 -42 -99t42 -97l250 -250q42 -42 98.5 -42t98.5 42zM1034 168q40 41 40 99.5t-40 99.5l-149 149l149 150q40 40 40 97.5t-40 98.5q-41 41 -98.5 41
t-97.5 -41l-250 -248q-42 -45 -42 -99t42 -97l250 -250q42 -42 98 -42t98 42z" />
    <glyph glyph-name="logicalnot" unicode="&#xac;" horiz-adv-x="1628" 
d="M1389 25q65 0 111 45.5t46 111.5v432q0 65 -46.5 111.5t-110.5 46.5h-1190q-66 0 -112 -46.5t-46 -111.5q0 -66 46 -111.5t112 -45.5h1032v-275q0 -66 46.5 -111.5t111.5 -45.5z" />
    <glyph glyph-name="registered" unicode="&#xae;" horiz-adv-x="1667" 
d="M834 1528q209 0 386.5 -103t281.5 -281t104 -388q0 -208 -104 -385t-281.5 -280t-386.5 -103q-158 0 -301 61t-246.5 163.5t-164.5 245t-61 298.5q0 158 61 301t164.5 246t246.5 164t301 61zM834 1300q-147 0 -272.5 -73t-199 -198.5t-73.5 -272.5q0 -110 45 -210.5
t119.5 -172.5t174.5 -115t206 -43q107 0 207.5 44t174 117t118 173t44.5 207q0 145 -74 270.5t-199.5 199.5t-270.5 74zM991 682l137 -205q25 -35 17 -77t-45 -64q-33 -23 -76.5 -19t-69.5 43l-170 254v-194q0 -44 -30.5 -74.5t-73.5 -30.5t-74 30.5t-31 74.5v692
q0 42 31.5 73.5t73.5 31.5h186q116 0 199.5 -83.5t83.5 -199.5q0 -84 -42.5 -151t-115.5 -101zM942 934q0 31 -22.5 53.5t-53.5 22.5h-82v-154h82q31 0 53.5 23.5t22.5 54.5z" />
    <glyph glyph-name="degree" unicode="&#xb0;" horiz-adv-x="710" 
d="M356 1516q121 0 207 -85.5t86 -205.5q0 -123 -85.5 -208t-207.5 -85q-123 0 -209 85t-86 208q0 120 86 205.5t209 85.5zM356 1313q-36 0 -64 -27t-28 -61q0 -37 27.5 -63.5t64.5 -26.5q34 0 61 27t27 63q0 34 -27 61t-61 27z" />
    <glyph glyph-name="plusminus" unicode="&#xb1;" horiz-adv-x="1204" 
d="M1024 926q57 0 98 -41t41 -99t-41 -99.5t-98 -41.5h-276v-168q0 -58 -41.5 -99.5t-100.5 -41.5q-57 0 -98 41.5t-41 99.5v168h-277q-58 0 -98.5 41t-40.5 100t40.5 99.5t98.5 40.5h277v143q0 58 41 99.5t98 41.5q59 0 100.5 -41.5t41.5 -99.5v-143h276zM1024 0
q57 0 98 41.5t41 99.5t-41 99t-98 41h-834q-58 0 -98.5 -40.5t-40.5 -99.5t40.5 -100t98.5 -41h834z" />
    <glyph glyph-name="uni00B2" unicode="&#xb2;" horiz-adv-x="729" 
d="M559 821q46 0 77.5 -31t31.5 -77t-32 -80.5t-77 -34.5h-366q-45 0 -82 37q-24 25 -27.5 56.5t6 56.5t25.5 45l301 368q22 28 17 63t-34 58q-23 22 -58.5 20.5t-61.5 -32.5q-33 -41 -82 -41q-41 0 -72.5 28.5t-35 67.5t25.5 80q83 99 204.5 109t215.5 -68
q97 -76 110 -200.5t-65 -219.5l-168 -205h147z" />
    <glyph glyph-name="uni00B3" unicode="&#xb3;" horiz-adv-x="722" 
d="M596 1247q0 -82 -41 -137q86 -86 86 -211q0 -129 -90.5 -220t-216.5 -91q-81 0 -151.5 42t-114.5 113q-25 40 -13.5 83.5t54.5 68.5q30 17 64 15.5t58 -23.5q9 -8 26.5 -29.5t27.5 -28.5q31 -21 69.5 -11.5t53.5 40.5q14 28 7.5 57.5t-28.5 47.5q-18 12 -58 20t-57 21
q-24 15 -38.5 42.5t-14.5 55.5q0 40 29 69t65 31q32 2 50.5 18t11.5 44q-6 21 -28.5 27t-41.5 -7q-34 -23 -75 -16.5t-72 37.5q-23 23 -26.5 58.5t13.5 66.5q25 43 78 64.5t111 21.5q108 0 185 -78.5t77 -190.5z" />
    <glyph glyph-name="paragraph" unicode="&#xb6;" horiz-adv-x="1130" 
d="M915 1516q52 0 87.5 -36.5t35.5 -86.5v-1514q0 -52 -36.5 -87.5t-86.5 -35.5q-52 0 -87 35t-35 88v1428h-127v-1428q0 -53 -35 -88t-88 -35q-54 0 -89.5 35t-35.5 88v731q-161 29 -269 156.5t-108 292.5q0 185 128 318t310 139h436z" />
    <glyph glyph-name="uni00B9" unicode="&#xb9;" horiz-adv-x="493" 
d="M295 1516q45 0 75.5 -34t30.5 -81v-684q0 -46 -32.5 -80.5t-77.5 -34.5q-49 0 -82 34t-33 81v600h-47q-40 0 -69 28t-29 68q0 43 29 73t69 30h166z" />
    <glyph glyph-name="guillemotright" unicode="&#xbb;" horiz-adv-x="1124" 
d="M289 168l248 250q42 39 42 96.5t-42 99.5l-248 248q-41 41 -99 41t-98 -41q-41 -41 -41 -98.5t41 -97.5l150 -150l-150 -149q-41 -41 -41 -99.5t41 -99.5q38 -38 98.5 -38t98.5 38zM774 168l248 250q42 39 42 96.5t-42 99.5l-248 248q-40 41 -98 41t-98 -41
q-41 -41 -41 -98.5t41 -97.5l149 -150l-149 -149q-41 -41 -41 -99.5t41 -99.5q38 -38 98 -38t98 38z" />
    <glyph glyph-name="onequarter" unicode="&#xbc;" horiz-adv-x="1585" 
d="M496 57l794 1276q28 44 17 93t-54 77q-43 25 -93.5 13t-78.5 -54l-794 -1278q-27 -41 -15.5 -92.5t56.5 -75.5q42 -25 91 -14t77 55zM356 1516q45 0 76 -34t31 -81v-684q0 -46 -33 -80.5t-78 -34.5q-49 0 -81.5 34t-32.5 81v600h-48q-40 0 -69 28t-29 68q0 43 29 73
t69 30h166zM1407 358q36 -3 61 -32t25 -66t-25 -65t-61 -31v-53q0 -43 -31 -75t-73 -32t-72.5 32t-30.5 75v53h-276q-66 0 -91 45t5 92q5 10 63.5 97t124 184t124.5 184l58 86q36 53 95 53q43 0 73.5 -29.5t30.5 -72.5v-445zM1200 506l-102 -148h102v148z" />
    <glyph glyph-name="onehalf" unicode="&#xbd;" horiz-adv-x="1763" 
d="M498 57l794 1276q25 44 13.5 93t-52.5 77q-43 25 -93 13t-75 -54l-794 -1278q-28 -42 -17 -91.5t58 -76.5q34 -24 87 -13.5t79 54.5zM463 1401v-684q0 -46 -33 -80.5t-78 -34.5t-77.5 34.5t-32.5 80.5v600h-49q-43 0 -72 28t-29 68q0 43 29 73t72 30h159q48 0 79.5 -34
t31.5 -81zM1542 223q46 0 77.5 -31t31.5 -77t-32 -80.5t-77 -34.5h-366q-45 0 -82 37q-24 25 -27.5 56.5t6 56.5t25.5 45l301 368q22 28 17 63t-34 58q-23 22 -58.5 20.5t-61.5 -32.5q-33 -41 -82 -41q-41 0 -72.5 28.5t-35 67.5t25.5 80q83 99 204.5 109t215.5 -68
q97 -76 110 -200.5t-65 -219.5l-168 -205h147z" />
    <glyph glyph-name="threequarters" unicode="&#xbe;" horiz-adv-x="1654" 
d="M596 1247q0 -82 -41 -137q86 -86 86 -211q0 -129 -90.5 -220t-216.5 -91q-81 0 -151.5 42t-114.5 113q-25 40 -13.5 83.5t54.5 68.5q30 17 64 15.5t58 -23.5q9 -8 26.5 -29.5t27.5 -28.5q31 -21 69.5 -11.5t53.5 40.5q14 28 7.5 57.5t-28.5 47.5q-18 12 -58 20t-57 21
q-24 15 -38.5 42.5t-14.5 55.5q0 40 29 69t65 31q32 2 50.5 18t11.5 44q-6 21 -28.5 27t-41.5 -7q-34 -23 -75 -16.5t-72 37.5q-23 23 -26.5 58.5t13.5 66.5q25 43 78 64.5t111 21.5q108 0 185 -78.5t77 -190.5zM592 53l788 1272q28 44 17 93t-54 77q-43 25 -92.5 13
t-74.5 -54l-789 -1274q-27 -45 -16 -94t53 -74q36 -23 89 -11t79 52zM1407 358q36 -3 61 -32t25 -66t-25 -65t-61 -31v-53q0 -43 -31 -75t-73 -32t-72.5 32t-30.5 75v53h-276q-66 0 -91 45t5 92q5 10 63.5 97t124 184t124.5 184l58 86q36 53 95 53q43 0 73.5 -29.5
t30.5 -72.5v-445zM1200 506l-102 -148h102v148z" />
    <glyph glyph-name="questiondown" unicode="&#xbf;" horiz-adv-x="1001" 
d="M362 1366q0 -61 44 -105t106 -44t106 44t44 105q0 62 -44 106t-106 44t-106 -44t-44 -106zM61 449q0 148 83 266t216 166v106q0 66 48.5 114t115.5 48q66 0 114 -48t48 -114v-176v-19v-20t-0.5 -18t-1.5 -19.5t-2.5 -17t-4 -18.5t-6.5 -16.5t-9 -18.5q-21 -36 -59.5 -57
t-80.5 -21q-56 0 -95.5 -40t-39.5 -97q0 -43 22 -75.5t55 -45t69 -12t67.5 22t46.5 58.5q26 63 89 88.5t126 -0.5q62 -28 87 -90t-1 -125q-56 -129 -171.5 -205.5t-254.5 -76.5q-126 0 -232 62t-167.5 168t-61.5 231z" />
    <glyph glyph-name="divide" unicode="&#xf7;" horiz-adv-x="1193" 
d="M750 948q0 62 -43 105t-105 43q-60 0 -102.5 -43.5t-42.5 -104.5q0 -60 42.5 -100.5t102.5 -40.5q62 0 105 40.5t43 100.5zM1016 461q56 0 96.5 40t40.5 97t-40.5 98t-96.5 41h-826q-57 0 -98 -41t-41 -98t41 -97t98 -40h826zM750 244q0 63 -43 105t-105 42
q-60 0 -102.5 -42.5t-42.5 -104.5q0 -60 42.5 -102t102.5 -42q62 0 105 42t43 102z" />
    <glyph glyph-name="florin" unicode="&#x192;" horiz-adv-x="909" 
d="M729 848q59 0 99 -42t40 -101q0 -61 -39.5 -102.5t-99.5 -41.5h-119v-549q0 -165 -117 -281t-282 -116q-66 0 -113 49t-47 115q0 68 47 117t113 49q30 0 51 18.5t21 48.5v910q0 180 124.5 306t301.5 126q66 0 112.5 -49t46.5 -115q0 -68 -46.5 -117t-112.5 -49
q-42 0 -70.5 -29t-28.5 -73v-74h119z" />
    <glyph glyph-name="endash" unicode="&#x2013;" horiz-adv-x="1501" 
d="M1262 457q65 0 111 45.5t46 111.5q0 65 -46.5 111.5t-110.5 46.5h-1022q-66 0 -112 -46.5t-46 -111.5q0 -66 46 -111.5t112 -45.5h1022z" />
    <glyph glyph-name="quoteleft" unicode="&#x2018;" horiz-adv-x="415" 
d="M111 1157l-48 201q-13 63 30 113t106 45q43 -3 75 -31.5t41 -69.5l47 -201q8 -37 -5 -73.5t-42 -59.5q-49 -41 -117.5 -17.5t-86.5 93.5z" />
    <glyph glyph-name="quoteright" unicode="&#x2019;" horiz-adv-x="415" 
d="M305 1157l47 201q14 63 -28.5 112.5t-106.5 45.5q-42 -3 -75 -31.5t-42 -69.5l-47 -201q-8 -37 5.5 -73.5t43.5 -59.5q36 -22 77.5 -23.5t78.5 26t47 73.5z" />
    <glyph glyph-name="quotedblleft" unicode="&#x201c;" horiz-adv-x="772" 
d="M111 1157l-45 201q-15 63 27.5 113t105.5 45q42 -3 74.5 -31t43.5 -70l45 -201q8 -37 -5 -75t-42 -58q-26 -17 -58 -21t-61 5t-52.5 33t-32.5 59zM467 1157l-47 201q-14 63 28.5 112.5t106.5 45.5q42 -3 75 -31.5t42 -69.5l47 -201q9 -37 -4.5 -75t-44.5 -58
q-26 -17 -58.5 -20t-62 6.5t-52.5 33t-30 56.5z" />
    <glyph glyph-name="quotedblright" unicode="&#x201d;" horiz-adv-x="772" 
d="M305 1157l47 201q14 63 -28.5 112.5t-106.5 45.5q-42 -3 -75 -31.5t-42 -69.5l-47 -201q-8 -37 5.5 -73.5t43.5 -57.5q25 -17 57.5 -21.5t62 4.5t53 32.5t30.5 58.5zM662 1157l45 201q15 63 -28 113t-106 45q-43 -3 -76 -31.5t-42 -69.5l-45 -201q-8 -37 5 -73t42 -58
q24 -18 56 -22.5t61.5 4.5t54 33t33.5 59z" />
    <glyph glyph-name="quotedblbase" unicode="&#x201e;" horiz-adv-x="770" 
d="M305 -127l47 201q14 63 -28.5 112t-106.5 45q-42 -3 -75 -31t-42 -69l-47 -201q-8 -37 5.5 -73.5t43.5 -57.5q24 -17 56.5 -21t62 5t53.5 32.5t31 57.5zM662 -127l45 201q15 63 -28 112.5t-106 44.5q-43 -3 -76 -31t-42 -69l-45 -201q-8 -37 5 -73t42 -58q24 -18 56 -22
t61.5 5t54 33t33.5 58z" />
    <glyph glyph-name="dagger" unicode="&#x2020;" horiz-adv-x="1204" 
d="M1030 1022q60 0 102 -41t42 -100q0 -60 -42 -102t-102 -42h-280v-983q0 -60 -42 -101.5t-102 -41.5q-59 0 -100 41.5t-41 101.5v983h-281q-60 0 -101.5 42t-41.5 102q0 59 41.5 100t101.5 41h281v350q0 60 41 102t100 42q60 0 102 -42t42 -102v-350h280z" />
    <glyph glyph-name="daggerdbl" unicode="&#x2021;" horiz-adv-x="1204" 
d="M1032 672q58 0 100 -42.5t42 -101.5q0 -60 -41.5 -101.5t-100.5 -41.5h-282v-631q0 -60 -42 -101.5t-102 -41.5q-59 0 -100 41.5t-41 101.5v631h-283q-59 0 -100 41.5t-41 101.5q0 59 41.5 101.5t99.5 42.5h283v65h-283q-58 0 -99.5 41.5t-41.5 100.5q0 60 41 101.5
t100 41.5h283v350q0 60 41 102t100 42q60 0 102 -42t42 -102v-350h282q59 0 100.5 -41.5t41.5 -101.5q0 -59 -42 -100.5t-100 -41.5h-282v-65h282z" />
    <glyph glyph-name="bullet" unicode="&#x2022;" horiz-adv-x="706" 
d="M645 504q0 122 -86 206.5t-207 84.5t-206 -84.5t-85 -206.5q0 -120 85.5 -203.5t205.5 -83.5q121 0 207 84t86 203z" />
    <glyph glyph-name="perthousand" unicode="&#x2030;" horiz-adv-x="2430" 
d="M616 66l672 1275q24 46 9.5 93.5t-58.5 72.5q-45 22 -94 7t-72 -60l-672 -1276q-22 -41 -6 -90t60 -72q40 -24 87 -11.5t74 61.5zM418 805q147 0 252.5 104t105.5 252q0 147 -106 253t-252 106q-149 0 -253 -105.5t-104 -253.5q0 -149 104 -252.5t253 -103.5zM418 1276
q46 0 80 -34.5t34 -80.5q0 -44 -34 -78t-80 -34t-79.5 33.5t-33.5 78.5q0 46 33.5 80.5t79.5 34.5zM1276 0q146 0 251 105t105 253q0 149 -104.5 253t-251.5 104q-149 0 -253.5 -104t-104.5 -253q0 -148 104.5 -253t253.5 -105zM2044 0q149 0 252.5 105t103.5 253
q0 149 -103.5 253t-252.5 104q-147 0 -252.5 -104.5t-105.5 -252.5q0 -147 105.5 -252.5t252.5 -105.5zM1276 471q46 0 79.5 -33t33.5 -80q0 -46 -33.5 -80t-79.5 -34q-49 0 -82 33.5t-33 80.5q0 48 33 80.5t82 32.5zM2044 471q49 0 81 -32.5t32 -80.5q0 -47 -32 -80.5
t-81 -33.5q-46 0 -80.5 34t-34.5 80q0 47 34.5 80t80.5 33z" />
    <glyph glyph-name="guilsinglleft" unicode="&#x2039;" horiz-adv-x="641" 
d="M549 170q40 40 40 98.5t-40 98.5l-150 149l150 150q40 43 40 99.5t-40 96.5q-41 41 -99.5 41t-99.5 -41l-248 -246q-42 -43 -42 -98t42 -100l248 -248q43 -41 100.5 -41t98.5 41z" />
    <glyph glyph-name="guilsinglright" unicode="&#x203a;" horiz-adv-x="638" 
d="M289 170l248 248q42 43 42 98.5t-42 97.5l-248 248q-41 41 -99 41t-98 -41q-41 -40 -41 -97.5t41 -98.5l150 -150l-150 -149q-41 -40 -41 -98.5t41 -98.5q43 -41 99.5 -41t97.5 41z" />
    <glyph glyph-name="fraction" unicode="&#x2044;" horiz-adv-x="1110" 
d="M268 57l795 1276q28 44 16 94.5t-55 75.5t-91.5 13.5t-76.5 -54.5l-795 -1278q-27 -43 -14.5 -93t55.5 -75q34 -22 87 -11.5t79 52.5z" />
    <glyph glyph-name="uni2074" unicode="&#x2074;" horiz-adv-x="772" 
d="M635 969q36 -3 61 -32.5t25 -66.5t-25 -65t-61 -31v-53q0 -43 -31 -75t-74 -32q-42 0 -72 32t-30 75v53h-276q-66 0 -91 45t5 92q5 10 63.5 97t124 184t124.5 184l58 86q36 54 94 54q43 0 74 -30t31 -73v-444zM428 1116l-102 -147h102v147z" />
    <glyph glyph-name="Euro" unicode="&#x20ac;" horiz-adv-x="1394" 
d="M1130 334q64 20 124.5 -12t80.5 -97q20 -64 -11.5 -123.5t-96.5 -78.5q-100 -30 -207 -33t-214 24t-202.5 81.5t-176.5 145.5t-132 208h-102q-54 0 -93 39t-39 94t39 94t93 39h38q-2 14 -2 43t2 43h-38q-54 0 -93 39t-39 94t39 94t93 39h102q51 118 132 209t176 145.5
t202 82t214 24t208 -34.5q65 -20 96.5 -79.5t11.5 -123.5q-20 -65 -80.5 -96.5t-124.5 -11.5q-74 19 -149 18t-155 -35t-142 -98h254q54 0 92.5 -39t38.5 -94t-38.5 -94t-92.5 -39h-379q-2 -14 -2 -43t2 -43h379q54 0 92.5 -39t38.5 -94t-38.5 -94t-92.5 -39h-254
q62 -64 142 -98t155 -35t149 18z" />
    <glyph glyph-name="trademark" unicode="&#x2122;" horiz-adv-x="1392" 
d="M442 1516q35 0 59.5 -23.5t24.5 -58.5t-24.5 -58.5t-59.5 -23.5h-82v-523q0 -33 -23 -57t-58 -24t-58.5 24t-23.5 57v523h-82q-33 0 -58.5 24t-25.5 58t25.5 58t58.5 24h327zM1253 1516q36 0 62 -23.5t26 -58.5v-605q0 -32 -26.5 -56.5t-61.5 -24.5q-32 0 -57 24.5
t-25 56.5v295l-147 -309q-9 -20 -28 -31.5t-40 -11.5q-20 0 -39 12t-28 31l-152 309v-295q0 -33 -23.5 -57t-58.5 -24q-32 0 -57 24.5t-25 56.5v605q0 35 24.5 58.5t57.5 23.5q58 0 86 -64q3 -8 215 -442q212 434 215 442q24 64 82 64z" />
    <glyph glyph-name="partialdiff" unicode="&#x2202;" horiz-adv-x="1183" 
d="M1102 528q0 -111 -27 -192.5t-96 -163.5q-74 -87 -178.5 -135.5t-218.5 -48.5q-141 0 -261 69.5t-190 189.5t-70 261t70 261t190 189.5t261 69.5q100 0 192 -39q-9 85 -73 143t-150 58h-92q-67 0 -114.5 48t-47.5 116q0 66 47.5 114t114.5 48h92q149 0 275.5 -73.5
t200 -200t73.5 -275.5zM582 313q80 0 137 57t57 138q0 80 -57 137t-137 57q-81 0 -138 -57t-57 -137q0 -82 56.5 -138.5t138.5 -56.5z" />
    <glyph glyph-name="uni2206" unicode="&#x2206;" horiz-adv-x="1269" 
d="M1067 0q73 0 116 63t17 132l-426 1224q-13 43 -51 70t-82 27q-45 0 -82.5 -27t-52.5 -70l-426 -1231q-26 -69 16.5 -128.5t116.5 -59.5h854zM414 285l227 653l225 -653h-452z" />
    <glyph glyph-name="product" unicode="&#x220f;" horiz-adv-x="1640" 
d="M1425 1516q70 0 117 -48t47 -116t-47 -116t-117 -48h-77v-1413q0 -67 -49 -115.5t-117 -48.5q-70 0 -117 48t-47 116v1413h-381v-1413q0 -67 -48.5 -115.5t-115.5 -48.5q-68 0 -117 48.5t-49 115.5v1413h-82q-67 0 -115.5 48t-48.5 116t48.5 116t115.5 48h1200z" />
    <glyph glyph-name="summation" unicode="&#x2211;" horiz-adv-x="1175" 
d="M971 -287q68 0 116 47t48 117q0 66 -48.5 114t-115.5 48h-453l338 502q28 40 28 90.5t-28 93.5l-330 465h445q67 0 115.5 48t48.5 114q0 68 -48.5 116t-115.5 48h-758q-48 0 -87.5 -25t-59 -62t-18 -83t29.5 -86l444 -633l-444 -662q-26 -39 -27.5 -84t17.5 -82t58 -61.5
t87 -24.5h758z" />
    <glyph glyph-name="radical" unicode="&#x221a;" horiz-adv-x="1370" 
d="M1239 1509q56 -22 79.5 -77.5t0.5 -110.5l-500 -1235q-13 -34 -43 -58t-65 -30q-51 -7 -95.5 18t-64.5 72l-254 647h-111q-60 0 -102.5 42t-42.5 102t42.5 102.5t102.5 42.5h211q44 0 80 -25t53 -67l160 -397l361 897q23 54 78.5 77t109.5 0z" />
    <glyph glyph-name="infinity" unicode="&#x221e;" horiz-adv-x="1841" 
d="M1364 965q175 0 300.5 -128.5t125.5 -306.5q0 -119 -57.5 -219t-155.5 -157.5t-213 -57.5q-213 0 -438 221q-225 -221 -439 -221q-115 0 -213 57.5t-155.5 157.5t-57.5 219q0 178 125.5 306.5t300.5 128.5q213 0 439 -222q226 222 438 222zM487 373q112 0 261 157
q-150 158 -261 158q-62 0 -105.5 -45.5t-43.5 -112.5t43.5 -112t105.5 -45zM1364 373q62 0 105.5 45t43.5 112t-43.5 112.5t-105.5 45.5q-110 0 -260 -158q149 -157 260 -157z" />
    <glyph glyph-name="integral" unicode="&#x222b;" horiz-adv-x="888" 
d="M193 -389q158 0 269 112t111 269v1108q0 54 39 90.5t93 36.5q59 0 101 42.5t42 102.5t-42 102t-101 42q-173 0 -294.5 -122t-121.5 -294v-1108q0 -38 -28 -65t-68 -27q-58 0 -100 -43t-42 -103t41.5 -101.5t100.5 -41.5z" />
    <glyph glyph-name="approxequal" unicode="&#x2248;" horiz-adv-x="1271" 
d="M1141 662q43 29 53.5 79t-18.5 93q-25 43 -73.5 53t-94.5 -19q-35 -22 -89 -38t-122.5 -21.5t-128.5 16.5q-94 33 -194 44t-178 2.5t-136 -31.5q-46 -15 -66.5 -61t-5.5 -93q21 -49 67.5 -71t94.5 -1q29 11 76 16.5t121 -2.5t143 -34q139 -50 288.5 -29t262.5 97z
M1143 330q43 30 54.5 78.5t-17.5 91.5q-25 43 -74.5 55t-93.5 -14q-36 -24 -90.5 -41t-122 -22.5t-127.5 16.5q-94 33 -193.5 44.5t-178.5 3.5t-136 -30q-48 -18 -67.5 -63.5t-4.5 -94.5q19 -49 65.5 -69.5t96.5 -1.5q27 10 76 14t122.5 -4.5t141.5 -32.5q147 -48 289.5 -28
t259.5 98z" />
    <glyph glyph-name="notequal" unicode="&#x2260;" horiz-adv-x="1249" 
d="M1038 573q59 0 99.5 -40.5t40.5 -98.5q0 -57 -41 -97t-99 -40h-424l-114 -231q-24 -49 -71 -62.5t-87 8.5q-45 22 -61.5 69t6.5 91l63 125h-129q-58 0 -98.5 40t-40.5 97q0 58 40 98.5t99 40.5h264l33 64h-297q-59 0 -99 40.5t-40 98.5q0 57 40.5 97t98.5 40h432l107 213
q23 45 69 61t89 -5q44 -22 60.5 -69t-5.5 -91l-53 -109h118q58 0 99 -40t41 -97q0 -58 -40.5 -98.5t-99.5 -40.5h-256l-30 -64h286z" />
    <glyph glyph-name="lessequal" unicode="&#x2264;" horiz-adv-x="1120" 
d="M1032 399q19 51 -4.5 99t-75.5 67l-340 123l340 123q53 19 76 65.5t4 98.5q-17 52 -67.5 75.5t-100.5 4.5l-686 -244q-55 -20 -76.5 -71.5t0 -103t76.5 -71.5l686 -243q32 -10 63.5 -9t60.5 23.5t44 62.5zM920 0q55 0 92 36.5t37 90.5q0 56 -37 94.5t-92 38.5h-705
q-55 0 -94 -39t-39 -94q0 -54 38.5 -90.5t94.5 -36.5h705z" />
    <glyph glyph-name="greaterequal" unicode="&#x2265;" horiz-adv-x="1122" 
d="M258 322l686 243q56 20 78 71t0.5 102.5t-78.5 72.5l-686 244q-52 19 -101.5 -5t-68.5 -75t5 -99t75 -65l342 -125l-342 -121q-51 -19 -75 -68t-5 -96q42 -112 170 -79zM907 0q55 0 94 37t39 92q0 54 -39.5 92.5t-93.5 38.5h-702q-54 0 -93.5 -38.5t-39.5 -92.5
q0 -55 39 -92t94 -37h702z" />
    <glyph glyph-name="lozenge" unicode="&#x25ca;" horiz-adv-x="1105" 
d="M557 0q79 0 123 70l364 616q20 32 20 71.5t-20 71.5l-364 617q-44 70 -123 70t-123 -70l-364 -617q-19 -32 -19 -71.5t19 -71.5l364 -616q44 -70 123 -70zM358 758l199 336l199 -336l-199 -336z" />
    </font>
</defs>
</svg>
